Patient4_TMGait_0pt5_01_left_21_EMG.mot
version=1
nRows=33
nColumns=33
inDegrees=no
endheader
time	1LAddLong	2LGlutMax	3LGlutMed	4LIliopsoas	5LSemiMemb	6LBicFemLong	7LRecFem	8LVastMed	9LVastLat	10LGasMed	11LTibAnt	12lTibPost	13LPeroneusLong	14LSol	15LExtDigLong	16LFlexDigLong	17RAddLong	18RGlutMax	19RGlutMed	20RIliopsoas	21RSemiMemb	22RBicFemLong	23RRecFem	24RVastMed	25RVastLat	26RGasMed	27RTibAnt	28RTibPost	29RPeroneusLong	30RSol	31RExtDigLong	32RFlexDigLong
29.49	0.009918	0.008545	-0.004578	0.002594	0.003815	0.008545	-0.083618	-0.004425	0.063629	-0.043488	0.009766	-0.000305	0.014954	-0.036774	-0.01236	-0.001526	0.005951	0.09613	-0.23025	0.051575	-0.045776	-0.003357	0.14465	-0.011749	-0.006561	-0.11398	0.046082	0.25452	0.46188	-0.35324	-0.002747	-0.022888
29.491	0.006104	0.033112	-0.058136	0.010223	0.016022	0.03006	-0.056305	-0.002441	0.059967	-0.026245	0.015259	0.007629	0.034485	-0.037537	-0.011597	-0.001526	0.017242	0.069885	-0.63507	0.020752	0.014954	0.018158	0.14404	-0.083313	-0.02533	-0.085297	0.1471	0.12116	0.20142	-0.522	-0.002289	-0.020447
29.492	0.008392	-0.01297	-0.056915	0.010376	0.010223	0.024414	-0.074463	0.000305	0.059814	-0.022583	0.015869	0.002441	0.038605	-0.057983	-0.025635	-0.001373	0.014954	0.13473	-0.6076	0.030212	0.031281	0.031281	0.14984	-0.057831	-0.015411	0.05661	0.20355	-0.014038	0.077057	-0.37567	-0.001984	-0.019226
29.493	0.016479	0.002747	-0.029907	0.016632	-0.002899	0.015411	-0.071259	-0.004272	0.055542	-0.038757	0.007629	0.001984	0.04425	-0.037231	-0.013428	0.001373	0.022278	0.15808	0.024261	0.005798	-0.037537	0.039368	0.15152	-0.019531	-0.011597	0.1236	0.11917	-0.026398	0.10819	0.26901	-0.002441	-0.013428
29.494	0.005341	0.00412	-0.075836	0.010986	-0.011749	0.005341	-0.08316	0.00061	0.04776	-0.046082	0.012512	-0.005035	0.035858	-0.043793	-0.003204	0.004883	0.027771	0.19089	0.80292	-0.065613	-0.035553	0.017853	0.12817	-0.012054	0.004578	0.033722	0.1831	-0.013123	-0.008392	0.7309	-0.001373	-0.013428
29.495	0.013733	-0.06424	-0.008698	0.006256	0.004272	0.011902	-0.075378	-0.002899	0.04303	-0.039368	0.010071	0.009918	0.039978	-0.037842	-0.002441	0.005188	0.029297	0.070496	1.1977	-0.17746	-0.03479	-0.001068	0.19012	-0.043182	0.003204	-0.019379	0.12451	0.04364	-0.081482	-0.21698	-0.003052	-0.011597
29.496	0.007935	-0.06424	0.054016	0.009918	0.003662	0.019226	-0.084991	0.004272	0.037994	-0.049591	0.01236	0.002747	0.048828	-0.027313	-0.020599	-0.002136	-0.012207	-0.057526	0.72067	-0.23804	-0.13672	-0.028839	0.13184	-0.046234	0.024719	-0.056763	-0.099487	0.040131	-0.19119	-0.52231	-0.005798	-0.011597
29.497	0.006409	-0.056	0.012512	0.015717	0.011139	0.030518	-0.093079	-0.000458	0.046997	-0.046539	0.006866	-0.001831	0.041199	-0.033722	-0.005951	-0.009308	0.013885	-0.052643	0.50705	-0.28473	-0.26291	-0.042572	0.12268	-0.052185	0.0177	-0.070343	0.096741	-0.001831	-0.15793	-0.47257	-0.00412	0.002899
29.498	0.010223	-0.03952	-0.016785	0.005646	0.016937	0.030212	-0.092926	0.003052	0.05249	-0.028687	0.014038	-0.001068	0.021057	-0.045929	-0.003357	0.009003	0.01358	-0.062408	-0.13351	-0.33402	-0.23041	-0.063934	0.10315	-0.068512	-0.011749	-0.024567	0.16037	0.00351	-0.023956	-0.30365	-0.002136	0.002594
29.499	0.005341	-0.035248	-0.044708	-0.002747	0.00824	0.027161	-0.096436	-0.001068	0.043335	-0.031738	0.004272	0.003357	0.030823	-0.041504	-0.010834	0.008545	-0.00885	-0.027466	-0.19638	-0.2475	0.24262	-0.069885	0.08667	-0.039825	0.011444	0.066833	0.24155	-0.01236	-0.072937	0.055542	-0.00061	0.002899
29.5	0.007019	-0.04364	-0.11169	0.002289	-0.007172	0.016785	-0.10513	0.001831	0.05249	-0.026703	0.003815	0.000458	0.032959	-0.056763	-0.006866	0.000305	0.002136	0.026398	-0.25467	0.12558	0.27496	-0.067444	0.12116	-0.041199	0.01358	0.07019	0.013733	0.02243	-0.022888	0.49103	-0.003204	0.001221
29.501	-0.003967	-0.075836	-0.077057	0.003052	-0.018768	0.008698	-0.094452	0.003204	0.050049	-0.034485	0.011444	0.005646	0.021362	-0.057831	-0.00885	-0.00473	-0.000916	0.048828	-0.060272	0.32257	0.008698	-0.042267	0.12543	-0.022888	0.031738	0.041046	-0.36545	0.000153	0.081482	0.61768	-0.003052	-0.002441
29.502	0.11887	-0.057831	0.053253	0.003815	-0.028229	0.02594	-0.081787	0.002136	0.053558	-0.030823	0.009766	0.016937	0.025024	-0.042572	-0.016174	0.000916	-0.022278	0.07309	-0.031891	0.39337	-0.14954	0.006561	0.12741	0.011597	0.045929	-0.020599	-0.51697	-0.000153	0.14725	0.70236	-0.002289	-0.005188
29.503	-0.14587	-0.070496	0.016785	-0.006714	-0.026093	0.046539	-0.070038	0.005646	0.046692	-0.045319	0.01297	0.002441	0.025024	-0.041046	-0.01297	0.000763	-0.006256	0.064392	-0.007019	0.28519	-0.004883	-0.01709	0.12299	-0.042572	0.044098	-0.084839	-0.36407	-0.000153	0.047302	0.79865	-0.002899	-0.010376
29.504	-0.045471	-0.084381	-0.008545	0.013123	-0.04425	0.030212	-0.10315	0.004578	0.049744	-0.039063	0.007019	0.002747	0.02182	-0.035858	0.00061	0.002441	0.00351	0.033875	-0.19241	0.18494	0.047607	0.007324	0.13336	-0.027466	0.040283	-0.04303	0.22888	-0.004272	-0.058136	0.83313	-0.00351	-0.021362
29.505	0.000153	-0.074158	0.043488	0.0177	0.000916	-0.001526	-0.088806	0.002289	0.046844	-0.045166	0.000916	0.004883	0.004883	-0.024261	-0.013733	-0.009766	0.019989	0.039825	-0.23148	0.11261	0.066376	0.025177	0.12497	-0.055847	0.041199	0.04715	0.34836	-0.020905	-0.03006	0.48614	-0.002747	-0.005798
29.506	0.013428	-0.05661	-0.017548	0.014954	0.039368	-0.005035	-0.097809	0.000458	0.052032	-0.044098	0.016022	0.005188	0.007629	0.020599	-0.007324	-0.004883	0.022125	0.049133	-0.14038	0.11566	0.085297	-0.0354	0.13107	-0.048676	-0.024872	0.049286	0.34851	-0.034943	0.030365	0.20798	-0.007935	-0.009308
29.507	-0.000305	-0.087585	-0.027313	0.015106	0.011444	0.016632	-0.084686	0.000916	0.054169	-0.039978	0.018311	0.006104	0.003967	-0.042114	-0.010681	-0.001373	0.013123	0.06485	0.002747	0.11871	0.022583	-0.02243	0.13489	-0.10498	-0.065613	0.020599	0.5896	-0.00351	-0.11261	0.10193	-0.002899	-0.018158
29.508	0.009155	-0.078583	-0.050049	0.009766	0.002289	0.04837	-0.080719	-0.00061	0.039825	-0.036926	0.010529	0.018463	0.010986	-0.093384	0.002136	0.006256	0.015106	0.10895	0.034485	0.049438	-0.043945	0.022888	0.17838	-0.10605	-0.044403	0.018311	0.45487	0.022736	-0.083771	-0.16159	-0.00824	-0.015869
29.509	0.013885	-0.097046	-0.046997	-0.005798	0.003357	0.070343	-0.086517	-0.002899	0.050201	-0.032349	0.012665	0.004883	-0.003357	-0.10407	-0.005493	-0.003815	0.032196	0.082855	-0.14465	0.013733	-0.30914	0.056305	0.18677	-0.054474	-0.026703	0.032959	0.36636	-0.01236	-0.034027	-0.35126	0.000763	-0.013428
29.51	0.008545	-0.082245	-0.086517	-0.005951	-0.053711	0.039825	-0.0914	-0.000916	0.037231	-0.044098	0.007782	0.002594	-0.008087	-0.12909	0.00061	-0.005646	0.022278	0.10681	0.1062	-0.023499	0.009003	-0.10925	0.15015	-0.01358	-0.002289	0.025635	0.91126	-0.022888	-0.082092	-0.38406	0.000916	-0.022583
29.511	0.014801	-0.11795	-0.096893	0.000153	-0.019836	0.006714	-0.10162	0.006714	0.040588	-0.039368	0.013885	0.000153	0.002136	-0.11383	-0.013275	0.005188	0.03067	0.12848	0.12619	-0.036774	0.036926	-0.17273	0.11871	-0.045776	-0.02243	0.013733	0.35584	-0.012512	0.006866	-0.27954	-0.001678	-0.011292
29.512	0.004425	-0.089111	-0.09079	0.002289	0.056305	0.010223	-0.1062	-0.000153	0.037537	-0.037537	0.006256	0.012207	0.016785	-0.083313	-0.001221	0.002289	0.011292	0.12039	0.094452	-0.011292	-0.037689	-0.00885	0.09964	0.012665	0.020447	0.011444	-0.37842	-0.01297	0.1358	-0.21057	0.000153	-0.009308
29.513	0.012665	-0.059967	-0.060272	0.020447	0.06424	0.028687	-0.11154	0.005951	0.035553	-0.049438	0.00412	0.007935	0.011444	-0.058289	0.003967	-0.003967	-0.010071	0.073242	0.13855	-0.010071	-0.0914	0.076141	0.10025	0.090942	0.10346	-0.006409	-0.71625	-0.016174	0.077667	-0.11108	-0.006561	-0.013123
29.514	0	-0.055084	-0.032501	-0.003967	0.046692	0.01358	-0.11597	0.003967	0.031128	-0.052032	0.006714	-0.003662	0.00824	-0.048065	-0.010223	0.006561	-0.003052	0.10681	0.12177	-0.046844	-0.14008	-0.024719	0.25604	0.095978	0.058289	-0.066376	-0.77148	-0.019989	-0.081329	0.092468	-0.001678	-0.009155
29.515	0.002594	-0.10681	-0.084686	0.007477	0.027466	-0.006409	-0.11093	0.003967	0.031433	-0.037689	0.00061	0.006561	0.004578	-0.054474	0.001831	0.003662	0.011292	-0.0177	0.081024	-0.056763	0.022888	-0.09613	0.26581	0.061035	0.032349	-0.086975	-0.80399	-0.02594	-0.098877	0.18143	-0.001678	-0.008545
29.516	0.007782	-0.10529	-0.040741	0.010681	0.001526	-0.02121	-0.099945	0.006866	0.030823	-0.049133	0.001221	0.006561	0.005951	-0.038452	0.000916	0.003357	0.012207	-0.03067	-0.19257	-0.074158	0.060272	-0.095062	0.28214	0.033112	0.005341	-0.10208	-0.7518	-0.028229	0.23224	0.002899	-0.003052	-0.001984
29.517	0.003967	-0.052795	0.016785	0.016174	0.050354	0.004578	-0.10864	0.004578	0.024567	-0.053558	0.015564	0.003204	-0.004425	-0.041504	-0.003662	0.006256	-0.020142	0.061188	-0.048218	-0.058136	0.06546	-0.037384	0.26749	0.05127	0.024414	-0.048218	-0.49347	-0.024567	0.072174	-0.12482	-0.005951	-0.00946
29.518	0.00946	-0.089874	0.18845	-0.002289	0.068512	0.003662	-0.10696	0.005798	0.02594	-0.041656	0.005493	0.008698	0.005646	-0.065613	-0.007477	0.006256	-0.024261	-0.017853	-0.11261	-0.053253	-0.033569	-0.074615	0.13763	-0.038147	0.086365	0.036163	-0.37735	-0.022278	0.025635	0.1181	0.000305	-0.009155
29.519	0.006714	-0.097809	0.0354	-0.002441	0.031738	0.015106	-0.11231	0.006714	0.021515	-0.042572	0.002899	0.004578	-0.009308	-0.055542	-0.013885	0.007324	0.000916	0.016785	0.13031	-0.041504	0.000305	-0.074768	0.25345	-0.048828	0.10727	0.068054	-0.27023	0.016632	0.082092	0.067902	-0.002289	-0.000153
29.52	0.005188	-0.10284	-0.053711	0.012054	0.019989	0.021667	-0.11322	0.005341	0.020142	-0.045166	0.002747	0	0.003967	-0.062256	-0.016479	0.010071	0.019226	0.06134	-0.22095	0.011444	0.087433	-0.059662	0.40482	-0.013275	0.056305	0.046844	0.074005	0.079346	0.18845	-0.4567	0.000305	-0.008698
29.521	0.006256	-0.11002	-0.055847	0.010681	0.013123	0.040283	-0.13458	0.000916	0.025024	-0.038452	0.005951	0.000763	0.000458	-0.072632	-0.015259	0.006866	0.003052	0.06897	-0.21835	0.018311	0.070648	-0.03952	0.36591	-0.016022	-0.001068	-0.035248	0.20401	0.023956	0.084229	-0.64743	0.002289	-0.021515
29.522	-0.005493	-0.089569	-0.052643	-0.006104	0.018768	0.049133	-0.12192	0.006561	0.027771	-0.039825	0	0.007324	0.004425	-0.066071	-0.019989	0.013885	-0.019379	0.058594	-0.005493	0.050354	0.015411	-0.011749	0.12772	-0.041962	-0.048065	-0.02182	-0.14542	-0.38696	-0.17807	-0.38742	-0.000763	-0.032043
